<?xml version="1.0" encoding="utf-8"?>
<!-- Generator: Adobe Illustrator 24.0.1, SVG Export Plug-In . SVG Version: 6.00 Build 0)  -->
<svg version="1.1" xmlns="http://www.w3.org/2000/svg" xmlns:xlink="http://www.w3.org/1999/xlink" x="0px" y="0px"
	 viewBox="0 0 300 300" style="enable-background:new 0 0 300 300;" xml:space="preserve">
<style type="text/css">
	.st0{fill:#FFFFFF;}
	.st1{display:none;}
	.st2{display:inline;}
</style>
<symbol  id="Circle" viewBox="-4.5 -4.5 9 9">
	<g>
		<circle class="st0" cx="0" cy="0" r="4"/>
		<path class="st0" d="M0,3.5c1.93,0,3.5-1.57,3.5-3.5S1.93-3.5,0-3.5S-3.5-1.93-3.5,0S-1.93,3.5,0,3.5 M0,4.5
			c-2.49,0-4.5-2.01-4.5-4.5S-2.49-4.5,0-4.5S4.5-2.49,4.5,0S2.49,4.5,0,4.5L0,4.5z"/>
	</g>
</symbol>
<g id="Layer_2" class="st1">
	<g class="st2">
		<rect x="0.5" y="0.5" width="305" height="303"/>
		<path d="M305,1v302H1V1H305 M306,0H0v304h306V0L306,0z"/>
	</g>
</g>
<g id="Layer_1">
	<g>
		
			<use xlink:href="#Circle"  width="9" height="9" x="-4.5" y="-4.5" transform="matrix(0.4313 0 0 -0.4313 29.512 6.1109)" style="overflow:visible;"/>
		
			<use xlink:href="#Circle"  width="9" height="9" x="-4.5" y="-4.5" transform="matrix(0.4134 0 0 -0.4134 82.4045 30.0928)" style="overflow:visible;"/>
		
			<use xlink:href="#Circle"  width="9" height="9" x="-4.5" y="-4.5" transform="matrix(0.4764 0 0 -0.4764 207.7173 32.3568)" style="overflow:visible;"/>
		
			<use xlink:href="#Circle"  width="9" height="9" x="-4.5" y="-4.5" transform="matrix(0.5227 0 0 -0.5227 260.3103 23.813)" style="overflow:visible;"/>
		
			<use xlink:href="#Circle"  width="9" height="9" x="-4.5" y="-4.5" transform="matrix(0.4659 0 0 -0.4659 268.2033 42.1521)" style="overflow:visible;"/>
		
			<use xlink:href="#Circle"  width="9" height="9" x="-4.5" y="-4.5" transform="matrix(0.3682 0 0 -0.3682 220.077 73.188)" style="overflow:visible;"/>
		
			<use xlink:href="#Circle"  width="9" height="9" x="-4.5" y="-4.5" transform="matrix(0.4141 0 0 -0.4141 144.036 96.1851)" style="overflow:visible;"/>
		
			<use xlink:href="#Circle"  width="9" height="9" x="-4.5" y="-4.5" transform="matrix(0.365 0 0 -0.365 76.7992 109.7154)" style="overflow:visible;"/>
		
			<use xlink:href="#Circle"  width="9" height="9" x="-4.5" y="-4.5" transform="matrix(0.5006 0 0 -0.5006 29.2931 144.2253)" style="overflow:visible;"/>
		
			<use xlink:href="#Circle"  width="9" height="9" x="-4.5" y="-4.5" transform="matrix(0.4035 0 0 -0.4035 31.5261 196.0923)" style="overflow:visible;"/>
		
			<use xlink:href="#Circle"  width="9" height="9" x="-4.5" y="-4.5" transform="matrix(0.3763 0 0 -0.3763 45.3887 225.7769)" style="overflow:visible;"/>
		
			<use xlink:href="#Circle"  width="9" height="9" x="-4.5" y="-4.5" transform="matrix(0.3416 0 0 -0.3416 79.7114 240.6627)" style="overflow:visible;"/>
		
			<use xlink:href="#Circle"  width="9" height="9" x="-4.5" y="-4.5" transform="matrix(0.363 0 0 -0.363 161.0812 244.3713)" style="overflow:visible;"/>
		
			<use xlink:href="#Circle"  width="9" height="9" x="-4.5" y="-4.5" transform="matrix(0.3766 0 0 -0.3766 205.3033 265.308)" style="overflow:visible;"/>
		
			<use xlink:href="#Circle"  width="9" height="9" x="-4.5" y="-4.5" transform="matrix(0.4727 0 0 -0.4727 243.7684 281.0552)" style="overflow:visible;"/>
		
			<use xlink:href="#Circle"  width="9" height="9" x="-4.5" y="-4.5" transform="matrix(0.6247 0 0 -0.6247 294.2187 272.7754)" style="overflow:visible;"/>
		
			<use xlink:href="#Circle"  width="9" height="9" x="-4.5" y="-4.5" transform="matrix(0.422 0 0 -0.422 329.4167 195.014)" style="overflow:visible;"/>
		
			<use xlink:href="#Circle"  width="9" height="9" x="-4.5" y="-4.5" transform="matrix(0.4492 0 0 -0.4492 280.4126 96.1239)" style="overflow:visible;"/>
		
			<use xlink:href="#Circle"  width="9" height="9" x="-4.5" y="-4.5" transform="matrix(0.5038 0 0 -0.5038 190.4799 92.0973)" style="overflow:visible;"/>
		
			<use xlink:href="#Circle"  width="9" height="9" x="-4.5" y="-4.5" transform="matrix(0.379 0 0 -0.379 74.2488 208.963)" style="overflow:visible;"/>
		
			<use xlink:href="#Circle"  width="9" height="9" x="-4.5" y="-4.5" transform="matrix(0.4286 0 0 -0.4286 23.9598 256.8493)" style="overflow:visible;"/>
		
			<use xlink:href="#Circle"  width="9" height="9" x="-4.5" y="-4.5" transform="matrix(0.6888 0 0 -0.6888 -23.3762 275.745)" style="overflow:visible;"/>
		
			<use xlink:href="#Circle"  width="9" height="9" x="-4.5" y="-4.5" transform="matrix(0.5807 0 0 -0.5807 36.5428 292.1337)" style="overflow:visible;"/>
		
			<use xlink:href="#Circle"  width="9" height="9" x="-4.5" y="-4.5" transform="matrix(0.5091 0 0 -0.5091 161.6038 292.9835)" style="overflow:visible;"/>
		
			<use xlink:href="#Circle"  width="9" height="9" x="-4.5" y="-4.5" transform="matrix(0.4161 0 0 -0.4161 219.7562 273.0537)" style="overflow:visible;"/>
		
			<use xlink:href="#Circle"  width="9" height="9" x="-4.5" y="-4.5" transform="matrix(0.3796 0 0 -0.3796 253.4194 229.5008)" style="overflow:visible;"/>
		
			<use xlink:href="#Circle"  width="9" height="9" x="-4.5" y="-4.5" transform="matrix(0.3487 0 0 -0.3487 143.1843 174.9307)" style="overflow:visible;"/>
		
			<use xlink:href="#Circle"  width="9" height="9" x="-4.5" y="-4.5" transform="matrix(0.7133 0 0 -0.7133 94.6844 177.6726)" style="overflow:visible;"/>
		
			<use xlink:href="#Circle"  width="9" height="9" x="-4.5" y="-4.5" transform="matrix(0.3861 0 0 -0.3861 72.4488 129.3003)" style="overflow:visible;"/>
		
			<use xlink:href="#Circle"  width="9" height="9" x="-4.5" y="-4.5" transform="matrix(0.3077 0 0 -0.3077 67.1586 86.0623)" style="overflow:visible;"/>
		
			<use xlink:href="#Circle"  width="9" height="9" x="-4.5" y="-4.5" transform="matrix(0.4453 0 0 -0.4453 63.8488 45.049)" style="overflow:visible;"/>
		
			<use xlink:href="#Circle"  width="9" height="9" x="-4.5" y="-4.5" transform="matrix(0.5989 0 0 -0.5989 153.1092 69.403)" style="overflow:visible;"/>
		
			<use xlink:href="#Circle"  width="9" height="9" x="-4.5" y="-4.5" transform="matrix(0.4861 0 0 -0.4861 225.2047 29.982)" style="overflow:visible;"/>
		
			<use xlink:href="#Circle"  width="9" height="9" x="-4.5" y="-4.5" transform="matrix(0.4585 0 0 -0.4585 267.5285 59.8722)" style="overflow:visible;"/>
		
			<use xlink:href="#Circle"  width="9" height="9" x="-4.5" y="-4.5" transform="matrix(0.3216 0 0 -0.3216 229.0634 164.284)" style="overflow:visible;"/>
		
			<use xlink:href="#Circle"  width="9" height="9" x="-4.5" y="-4.5" transform="matrix(0.6514 0 0 -0.6514 74.3611 154.5128)" style="overflow:visible;"/>
		
			<use xlink:href="#Circle"  width="9" height="9" x="-4.5" y="-4.5" transform="matrix(0.4158 0 0 -0.4158 -8.2164 77.1795)" style="overflow:visible;"/>
		
			<use xlink:href="#Circle"  width="9" height="9" x="-4.5" y="-4.5" transform="matrix(0.6017 0 0 -0.6017 -34.8544 62.3)" style="overflow:visible;"/>
		
			<use xlink:href="#Circle"  width="9" height="9" x="-4.5" y="-4.5" transform="matrix(0.5778 0 0 -0.5778 -25.8868 174.4896)" style="overflow:visible;"/>
		
			<use xlink:href="#Circle"  width="9" height="9" x="-4.5" y="-4.5" transform="matrix(0.369 0 0 -0.369 149.5191 240.6167)" style="overflow:visible;"/>
		
			<use xlink:href="#Circle"  width="9" height="9" x="-4.5" y="-4.5" transform="matrix(0.3205 0 0 -0.3205 271.2197 189.7294)" style="overflow:visible;"/>
		
			<use xlink:href="#Circle"  width="9" height="9" x="-4.5" y="-4.5" transform="matrix(0.3696 0 0 -0.3696 303.3302 152.1351)" style="overflow:visible;"/>
		
			<use xlink:href="#Circle"  width="9" height="9" x="-4.5" y="-4.5" transform="matrix(0.4159 0 0 -0.4159 256.872 101.2393)" style="overflow:visible;"/>
		
			<use xlink:href="#Circle"  width="9" height="9" x="-4.5" y="-4.5" transform="matrix(0.4925 0 0 -0.4925 179.4729 90.5858)" style="overflow:visible;"/>
		
			<use xlink:href="#Circle"  width="9" height="9" x="-4.5" y="-4.5" transform="matrix(0.3808 0 0 -0.3808 189.2111 120.9193)" style="overflow:visible;"/>
		
			<use xlink:href="#Circle"  width="9" height="9" x="-4.5" y="-4.5" transform="matrix(0.3654 0 0 -0.3654 163.3433 147.0246)" style="overflow:visible;"/>
		
			<use xlink:href="#Circle"  width="9" height="9" x="-4.5" y="-4.5" transform="matrix(0.4004 0 0 -0.4004 114.2075 91.5301)" style="overflow:visible;"/>
		
			<use xlink:href="#Circle"  width="9" height="9" x="-4.5" y="-4.5" transform="matrix(0.4867 0 0 -0.4867 96.3233 56.7636)" style="overflow:visible;"/>
		
			<use xlink:href="#Circle"  width="9" height="9" x="-4.5" y="-4.5" transform="matrix(0.3678 0 0 -0.3678 3.3198 47.0941)" style="overflow:visible;"/>
		
			<use xlink:href="#Circle"  width="9" height="9" x="-4.5" y="-4.5" transform="matrix(0.446 0 0 -0.446 10.3014 150.5565)" style="overflow:visible;"/>
		
			<use xlink:href="#Circle"  width="9" height="9" x="-4.5" y="-4.5" transform="matrix(0.4188 0 0 -0.4188 21.7144 196.1034)" style="overflow:visible;"/>
		
			<use xlink:href="#Circle"  width="9" height="9" x="-4.5" y="-4.5" transform="matrix(0.3746 0 0 -0.3746 42.1228 244.6639)" style="overflow:visible;"/>
		
			<use xlink:href="#Circle"  width="9" height="9" x="-4.5" y="-4.5" transform="matrix(0.4075 0 0 -0.4075 254.4898 241.0011)" style="overflow:visible;"/>
		
			<use xlink:href="#Circle"  width="9" height="9" x="-4.5" y="-4.5" transform="matrix(0.371 0 0 -0.371 109.0027 202.3206)" style="overflow:visible;"/>
		
			<use xlink:href="#Circle"  width="9" height="9" x="-4.5" y="-4.5" transform="matrix(0.4091 0 0 -0.4091 99.445 128.897)" style="overflow:visible;"/>
		
			<use xlink:href="#Circle"  width="9" height="9" x="-4.5" y="-4.5" transform="matrix(0.3765 0 0 -0.3765 91.1385 98.4437)" style="overflow:visible;"/>
		
			<use xlink:href="#Circle"  width="9" height="9" x="-4.5" y="-4.5" transform="matrix(0.3739 0 0 -0.3739 176.8771 128.9371)" style="overflow:visible;"/>
		
			<use xlink:href="#Circle"  width="9" height="9" x="-4.5" y="-4.5" transform="matrix(0.3246 0 0 -0.3246 211.7089 157.6106)" style="overflow:visible;"/>
		
			<use xlink:href="#Circle"  width="9" height="9" x="-4.5" y="-4.5" transform="matrix(0.3754 0 0 -0.3754 230.0034 101.9186)" style="overflow:visible;"/>
		
			<use xlink:href="#Circle"  width="9" height="9" x="-4.5" y="-4.5" transform="matrix(0.456 0 0 -0.456 111.6228 55.0901)" style="overflow:visible;"/>
		
			<use xlink:href="#Circle"  width="9" height="9" x="-4.5" y="-4.5" transform="matrix(0.3138 0 0 -0.3138 20.6904 92.6467)" style="overflow:visible;"/>
		
			<use xlink:href="#Circle"  width="9" height="9" x="-4.5" y="-4.5" transform="matrix(0.4067 0 0 -0.4067 22.7961 228.1839)" style="overflow:visible;"/>
		
			<use xlink:href="#Circle"  width="9" height="9" x="-4.5" y="-4.5" transform="matrix(0.5571 0 0 -0.5571 150.2218 299.3065)" style="overflow:visible;"/>
		
			<use xlink:href="#Circle"  width="9" height="9" x="-4.5" y="-4.5" transform="matrix(0.445 0 0 -0.445 285.2428 235.2446)" style="overflow:visible;"/>
		
			<use xlink:href="#Circle"  width="9" height="9" x="-4.5" y="-4.5" transform="matrix(0.3286 0 0 -0.3286 275.4417 155.1969)" style="overflow:visible;"/>
		
			<use xlink:href="#Circle"  width="9" height="9" x="-4.5" y="-4.5" transform="matrix(0.5155 0 0 -0.5155 262.3574 79.2875)" style="overflow:visible;"/>
		
			<use xlink:href="#Circle"  width="9" height="9" x="-4.5" y="-4.5" transform="matrix(0.5396 0 0 -0.5396 165.6104 25.9034)" style="overflow:visible;"/>
		
			<use xlink:href="#Circle"  width="9" height="9" x="-4.5" y="-4.5" transform="matrix(0.3902 0 0 -0.3902 119.9157 135.6058)" style="overflow:visible;"/>
		
			<use xlink:href="#Circle"  width="9" height="9" x="-4.5" y="-4.5" transform="matrix(0.3717 0 0 -0.3717 98.1115 212.0572)" style="overflow:visible;"/>
		
			<use xlink:href="#Circle"  width="9" height="9" x="-4.5" y="-4.5" transform="matrix(0.873 0 0 -0.873 252.2308 -34.2994)" style="overflow:visible;"/>
		
			<use xlink:href="#Circle"  width="9" height="9" x="-4.5" y="-4.5" transform="matrix(0.9251 0 0 -0.9251 141.0293 -44.706)" style="overflow:visible;"/>
		
			<use xlink:href="#Circle"  width="9" height="9" x="-4.5" y="-4.5" transform="matrix(0.6641 0 0 -0.6641 68.5627 -17.317)" style="overflow:visible;"/>
		
			<use xlink:href="#Circle"  width="9" height="9" x="-4.5" y="-4.5" transform="matrix(0.6462 0 0 -0.6462 84.9961 -10.6569)" style="overflow:visible;"/>
		
			<use xlink:href="#Circle"  width="9" height="9" x="-4.5" y="-4.5" transform="matrix(0.8762 0 0 -0.8762 354.6043 23.6107)" style="overflow:visible;"/>
		
			<use xlink:href="#Circle"  width="9" height="9" x="-4.5" y="-4.5" transform="matrix(1 0 0 -1 404.148 72.5917)" style="overflow:visible;"/>
		
			<use xlink:href="#Circle"  width="9" height="9" x="-4.5" y="-4.5" transform="matrix(0.382 0 0 -0.382 323.6044 186.3412)" style="overflow:visible;"/>
		
			<use xlink:href="#Circle"  width="9" height="9" x="-4.5" y="-4.5" transform="matrix(0.7169 0 0 -0.7169 323.6281 41.0047)" style="overflow:visible;"/>
		
			<use xlink:href="#Circle"  width="9" height="9" x="-4.5" y="-4.5" transform="matrix(0.634 0 0 -0.634 261.1049 4.519)" style="overflow:visible;"/>
		
			<use xlink:href="#Circle"  width="9" height="9" x="-4.5" y="-4.5" transform="matrix(0.6746 0 0 -0.6746 199.2199 -5.2243)" style="overflow:visible;"/>
		
			<use xlink:href="#Circle"  width="9" height="9" x="-4.5" y="-4.5" transform="matrix(0.4401 0 0 -0.4401 113.9888 16.3153)" style="overflow:visible;"/>
		
			<use xlink:href="#Circle"  width="9" height="9" x="-4.5" y="-4.5" transform="matrix(0.6426 0 0 -0.6426 161.4622 40.1054)" style="overflow:visible;"/>
		
			<use xlink:href="#Circle"  width="9" height="9" x="-4.5" y="-4.5" transform="matrix(0.4344 0 0 -0.4344 78.8414 274.6737)" style="overflow:visible;"/>
		
			<use xlink:href="#Circle"  width="9" height="9" x="-4.5" y="-4.5" transform="matrix(0.3949 0 0 -0.3949 125.2152 254.6306)" style="overflow:visible;"/>
		
			<use xlink:href="#Circle"  width="9" height="9" x="-4.5" y="-4.5" transform="matrix(0.3351 0 0 -0.3351 208.0157 233.4939)" style="overflow:visible;"/>
		
			<use xlink:href="#Circle"  width="9" height="9" x="-4.5" y="-4.5" transform="matrix(0.309 0 0 -0.309 235.4032 196.8935)" style="overflow:visible;"/>
		
			<use xlink:href="#Circle"  width="9" height="9" x="-4.5" y="-4.5" transform="matrix(0.3099 0 0 -0.3099 241.7035 179.8155)" style="overflow:visible;"/>
		
			<use xlink:href="#Circle"  width="9" height="9" x="-4.5" y="-4.5" transform="matrix(0.3212 0 0 -0.3212 21.542 107.6311)" style="overflow:visible;"/>
		
			<use xlink:href="#Circle"  width="9" height="9" x="-4.5" y="-4.5" transform="matrix(0.3047 0 0 -0.3047 35.0781 53.2528)" style="overflow:visible;"/>
		
			<use xlink:href="#Circle"  width="9" height="9" x="-4.5" y="-4.5" transform="matrix(0.4277 0 0 -0.4277 18.9639 15.6568)" style="overflow:visible;"/>
		
			<use xlink:href="#Circle"  width="9" height="9" x="-4.5" y="-4.5" transform="matrix(0.4676 0 0 -0.4676 119.6562 45.7502)" style="overflow:visible;"/>
		
			<use xlink:href="#Circle"  width="9" height="9" x="-4.5" y="-4.5" transform="matrix(0.3637 0 0 -0.3637 65.8079 60.3534)" style="overflow:visible;"/>
		
			<use xlink:href="#Circle"  width="9" height="9" x="-4.5" y="-4.5" transform="matrix(0.4038 0 0 -0.4038 109.9365 111.4495)" style="overflow:visible;"/>
		
			<use xlink:href="#Circle"  width="9" height="9" x="-4.5" y="-4.5" transform="matrix(0.3194 0 0 -0.3194 190.4477 192.8271)" style="overflow:visible;"/>
		
			<use xlink:href="#Circle"  width="9" height="9" x="-4.5" y="-4.5" transform="matrix(0.3428 0 0 -0.3428 234.3114 224.8287)" style="overflow:visible;"/>
	</g>
</g>
</svg>
